<svg width="57" height="57" viewBox="0 0 57 57" fill="none" xmlns="http://www.w3.org/2000/svg">
<path fill-rule="evenodd" clip-rule="evenodd" d="M28.5 0.46875C13.0188 0.46875 0.46875 13.0188 0.46875 28.5C0.46875 43.9812 13.0188 56.5312 28.5 56.5312C43.9812 56.5312 56.5312 43.9812 56.5312 28.5C56.5312 13.0188 43.9812 0.46875 28.5 0.46875ZM40.8059 30.0247C41.2103 29.6203 41.4375 29.0719 41.4375 28.5C41.4375 27.9281 41.2103 27.3797 40.806 26.9753L32.181 18.3503C31.3389 17.5082 29.9736 17.5082 29.1316 18.3503C28.2895 19.1924 28.2895 20.5576 29.1316 21.3997L34.0756 26.3438L17.7188 26.3437C16.5279 26.3437 15.5625 27.3091 15.5625 28.5C15.5625 29.6909 16.5279 30.6562 17.7188 30.6562L34.0756 30.6562L29.1315 35.6003C28.2895 36.4424 28.2895 37.8076 29.1315 38.6497C29.9736 39.4918 31.3389 39.4918 32.1809 38.6497L40.8059 30.0247Z" fill="black"/>
</svg>
