<svg width="57" height="57" viewBox="0 0 57 57" fill="none" xmlns="http://www.w3.org/2000/svg">
<path fill-rule="evenodd" clip-rule="evenodd" d="M56.5312 28.5C56.5312 13.0188 43.9812 0.46875 28.5 0.46875C13.0188 0.46875 0.46875 13.0188 0.46875 28.5C0.46875 43.9812 13.0188 56.5312 28.5 56.5312C43.9812 56.5312 56.5312 43.9812 56.5312 28.5ZM26.9753 40.8059C27.3797 41.2103 27.9281 41.4375 28.5 41.4375C29.0719 41.4375 29.6203 41.2103 30.0247 40.806L38.6497 32.181C39.4918 31.3389 39.4918 29.9736 38.6497 29.1316C37.8076 28.2895 36.4424 28.2895 35.6003 29.1316L30.6563 34.0756L30.6563 17.7188C30.6563 16.5279 29.6909 15.5625 28.5 15.5625C27.3091 15.5625 26.3438 16.5279 26.3438 17.7188L26.3438 34.0756L21.3997 29.1315C20.5576 28.2895 19.1924 28.2895 18.3503 29.1315C17.5082 29.9736 17.5082 31.3389 18.3503 32.1809L26.9753 40.8059Z" fill="black"/>
</svg>
