<svg width="33" height="33" viewBox="0 0 33 33" fill="none" xmlns="http://www.w3.org/2000/svg">
<path fill-rule="evenodd" clip-rule="evenodd" d="M21.8112 3.09375L28.764 3.09375C29.0275 3.09375 29.2801 3.2024 29.4664 3.3958C29.6526 3.58919 29.7573 3.8515 29.7573 4.125V11.3438C29.7573 11.9133 29.3126 12.375 28.764 12.375C28.2155 12.375 27.7708 11.9133 27.7708 11.3438V6.61466L11.5878 23.4167C11.1999 23.8194 10.571 23.8194 10.1831 23.4167C9.79518 23.014 9.79518 22.361 10.1831 21.9583L26.3661 5.15625L21.8112 5.15625C21.2627 5.15625 20.818 4.69454 20.818 4.125C20.818 3.55546 21.2627 3.09375 21.8112 3.09375ZM7.90564 9.28125C6.80852 9.28125 5.91913 10.2047 5.91913 11.3438V25.7812C5.91913 26.9203 6.80852 27.8438 7.90564 27.8438H21.8112C22.9084 27.8438 23.7977 26.9203 23.7977 25.7812V14.4375C23.7977 13.868 24.2424 13.4063 24.791 13.4063C25.3396 13.4063 25.7843 13.868 25.7843 14.4375V25.7812C25.7843 28.0594 24.0055 29.9062 21.8112 29.9062H7.90564C5.7114 29.9062 3.93262 28.0594 3.93262 25.7812V11.3438C3.93262 9.06558 5.7114 7.21875 7.90564 7.21875H18.8315C19.38 7.21875 19.8247 7.68046 19.8247 8.25C19.8247 8.81954 19.38 9.28125 18.8315 9.28125H7.90564Z" fill="white"/>
</svg>
