<svg width="287" height="34" viewBox="0 0 287 34" fill="none" xmlns="http://www.w3.org/2000/svg">
<path d="M45.8501 0H17.3488C13.1724 0 9.69196 3.12366 9.12244 7.15173H43.1519C44.2327 7.15173 45.1186 8.03841 45.1186 9.12016V25.0348C45.1186 25.5694 45.068 26.0938 44.9693 26.6005H45.8501C50.4215 26.6005 54.16 22.8587 54.16 18.2834V8.31708C54.1575 3.7418 50.4189 0 45.8501 0Z" fill="white"/>
<path d="M9.03891 8.31712C9.03891 7.92192 9.06675 7.5343 9.12243 7.1543H0V33.352H36.8112C40.8459 33.352 44.2327 30.4335 44.9718 26.6005H9.03891V8.31712Z" fill="white"/>
<path d="M72.2911 23.6141H95.6844V27.6954H71.0989C66.3023 27.6954 64.3887 25.2482 64.3887 21.3569V5.66516H70.4711V21.3569C70.4737 22.7959 71.2887 23.6141 72.2911 23.6141Z" fill="white"/>
<path d="M125.664 27.662V18.2783H106.536V27.662H100.39V12.0006C100.39 8.42349 102.584 5.66211 106.976 5.66211H125.196C129.618 5.66211 131.782 8.42349 131.782 12.0006V27.662H125.664ZM108.386 9.61418C107.13 9.61418 106.536 10.587 106.536 12.0006V14.3541H125.664V12.0006C125.664 10.5895 125.069 9.61418 123.75 9.61418H108.386Z" fill="white"/>
<path d="M168.059 12.031V27.629H161.599V12.031C161.599 10.9011 161.035 9.80164 159.749 9.80164H142.972V27.629H136.482V5.7229H161.382C165.674 5.7229 168.059 8.61095 168.059 12.031Z" fill="white"/>
<path d="M197.474 5.65955C201.739 5.65955 203.62 8.51467 203.62 12.1551V21.1309C203.62 24.8347 201.739 27.6594 197.474 27.6594H172.764V5.65955H197.474ZM197.818 21.1334V12.1577C197.818 10.7136 197.254 9.86749 195.874 9.86749H178.566V23.4895H195.874C197.254 23.4869 197.818 22.5774 197.818 21.1334Z" fill="white"/>
<path d="M214.625 27.6923H208.323V5.65955H214.625V27.6923Z" fill="white"/>
<path d="M244.605 27.662V18.2783H225.476V27.662H219.331V12.0006C219.331 8.42349 221.525 5.66211 225.917 5.66211H244.136C248.558 5.66211 250.723 8.42349 250.723 12.0006V27.662H244.605ZM227.327 9.61418C226.071 9.61418 225.476 10.587 225.476 12.0006V14.3541H244.605V12.0006C244.605 10.5895 244.01 9.61418 242.691 9.61418H227.327Z" fill="white"/>
<path d="M287 12.031V27.629H280.54V12.031C280.54 10.9011 279.976 9.80164 278.69 9.80164H261.913V27.629H255.423V5.7229H280.323C284.618 5.7229 287 8.61095 287 12.031Z" fill="white"/>
</svg>
