<svg width="187" height="173" viewBox="0 0 187 173" fill="none" xmlns="http://www.w3.org/2000/svg">
<path fill-rule="evenodd" clip-rule="evenodd" d="M24.3723 67.9788C34.6016 29.8027 73.8419 7.14722 112.018 17.3765C124.623 20.7538 135.517 27.2821 144.103 35.8843L162.262 54.0428H131.884C127.932 54.0428 124.728 57.2468 124.728 61.1991C124.728 65.1513 127.932 68.3553 131.884 68.3553H179.522C181.42 68.3553 183.24 67.6012 184.582 66.2589C185.924 64.9166 186.678 63.0962 186.678 61.198V13.5613C186.678 9.60901 183.474 6.40505 179.522 6.40505C175.569 6.40505 172.365 9.60901 172.365 13.5613V43.9054L154.233 25.7734C143.917 15.439 130.821 7.59736 115.722 3.55168C69.911 -8.72345 22.8226 18.4631 10.5475 64.2745C9.52456 68.0921 11.7901 72.0161 15.6077 73.0391C19.4253 74.062 23.3494 71.7964 24.3723 67.9788ZM171.385 99.9621C167.567 98.9391 163.643 101.205 162.62 105.022C152.391 143.198 113.151 165.854 74.9746 155.625C62.3703 152.247 51.4757 145.719 42.8896 137.117L24.7424 118.958H55.1118C59.064 118.958 62.268 115.754 62.268 111.802C62.268 107.849 59.064 104.645 55.1118 104.645L7.47363 104.646C3.52135 104.646 0.317383 107.849 0.317383 111.802V159.44C0.317383 163.392 3.52135 166.596 7.47363 166.596C11.4259 166.596 14.6299 163.392 14.6299 159.44V129.086L32.7597 147.228C43.0761 157.564 56.1704 165.403 71.2703 169.449C117.082 181.725 164.17 154.538 176.445 108.727C177.468 104.909 175.203 100.985 171.385 99.9621Z" fill="white"/>
</svg>
