<svg width="13" height="9" viewBox="0 0 13 9" fill="none" xmlns="http://www.w3.org/2000/svg">
<path d="M6.17 8V6.63H2.37V5.16H5.67V3.79H2.37V2.37H6.12V1H0.84V8H6.17ZM12.5992 5.93V5.91C12.5992 5.60333 12.5492 5.34 12.4492 5.12C12.3559 4.9 12.2126 4.71 12.0192 4.55C11.8326 4.38333 11.5992 4.24333 11.3192 4.13C11.0459 4.01 10.7326 3.90333 10.3792 3.81C10.0792 3.73 9.82922 3.66 9.62922 3.6C9.43589 3.54 9.28255 3.47667 9.16922 3.41C9.05589 3.34333 8.97589 3.27 8.92922 3.19C8.88922 3.10333 8.86922 3.00333 8.86922 2.89V2.87C8.86922 2.69667 8.94255 2.55333 9.08922 2.44C9.24255 2.32 9.46922 2.26 9.76922 2.26C10.0692 2.26 10.3692 2.32333 10.6692 2.45C10.9692 2.57 11.2759 2.73667 11.5892 2.95L12.3892 1.79C12.0292 1.50333 11.6326 1.28333 11.1992 1.13C10.7726 0.976666 10.3026 0.9 9.78922 0.9C9.42922 0.9 9.09922 0.95 8.79922 1.05C8.49922 1.15 8.23922 1.29333 8.01922 1.48C7.80589 1.66667 7.63922 1.89 7.51922 2.15C7.39922 2.40333 7.33922 2.69 7.33922 3.01V3.03C7.33922 3.37667 7.39255 3.66667 7.49922 3.9C7.61255 4.13333 7.76922 4.33 7.96922 4.49C8.16922 4.64333 8.41255 4.77333 8.69922 4.88C8.98589 4.98667 9.30589 5.08333 9.65922 5.17C9.95255 5.24333 10.1892 5.31333 10.3692 5.38C10.5559 5.44667 10.6992 5.51333 10.7992 5.58C10.9059 5.64667 10.9759 5.72 11.0092 5.8C11.0492 5.87333 11.0692 5.96 11.0692 6.06V6.08C11.0692 6.28667 10.9792 6.45 10.7992 6.57C10.6259 6.68333 10.3792 6.74 10.0592 6.74C9.65922 6.74 9.28922 6.66333 8.94922 6.51C8.61589 6.35667 8.28922 6.15 7.96922 5.89L7.05922 6.98C7.47922 7.36 7.94589 7.64333 8.45922 7.83C8.97255 8.01 9.49589 8.1 10.0292 8.1C10.4092 8.1 10.7559 8.05333 11.0692 7.96C11.3826 7.86 11.6526 7.72 11.8792 7.54C12.1059 7.35333 12.2826 7.12667 12.4092 6.86C12.5359 6.58667 12.5992 6.27667 12.5992 5.93Z" fill="white"/>
</svg>
