<svg width="35" height="24" viewBox="0 0 35 24" fill="none" xmlns="http://www.w3.org/2000/svg">
<g clip-path="url(#clip0_119_3044)">
<path fill-rule="evenodd" clip-rule="evenodd" d="M0 0H49.875V1.8469H0V0ZM0 3.69375H49.875V5.54065H0V3.69375ZM0 7.3828H49.875V9.23435H0V7.3828ZM0 11.0766H49.875V12.9234H0V11.0766ZM0 14.7703H49.875V16.6172H0V14.7703ZM0 18.4594H49.875V20.3062H0V18.4594ZM0 22.1531H49.875V24H0V22.1531Z" fill="#BD3D44"/>
<path fill-rule="evenodd" clip-rule="evenodd" d="M0 1.84692H49.875V3.69377H0V1.84692ZM0 5.54062H49.875V7.38282H0V5.54062ZM0 9.22972H49.875V11.0766H0V9.22972ZM0 12.9235H49.875V14.7703H0V12.9235ZM0 16.6172H49.875V18.4641H0V16.6172ZM0 20.3063H49.875V22.1532H0V20.3063Z" fill="white"/>
<path fill-rule="evenodd" clip-rule="evenodd" d="M0 0H19.949V12.9234H0V0Z" fill="#192F5D"/>
<path fill-rule="evenodd" clip-rule="evenodd" d="M1.66111 0.553101L1.84568 1.06395H2.43018L1.95844 1.37805L2.13793 1.89365L1.66111 1.5749L1.18943 1.88895L1.36886 1.37805L0.89209 1.06395H1.48682L1.66111 0.553101ZM4.98851 0.553101L5.16794 1.06395H5.75753L5.28071 1.37805L5.46019 1.89365L4.98851 1.5749L4.51169 1.88895L4.69112 1.37805L4.21944 1.06395H4.80394L4.98851 0.553101ZM8.31078 0.553101L8.49535 1.064H9.07471L8.60303 1.3781L8.7824 1.8937L8.30564 1.57495L7.83396 1.889L8.01339 1.3781L7.53657 1.064H8.12621L8.31078 0.553101ZM11.6382 0.553101L11.8176 1.064H12.4072L11.9304 1.3781L12.1149 1.8937L11.6381 1.57495L11.1614 1.889L11.3459 1.3781L10.8691 1.064H11.4536L11.6382 0.553101ZM14.9604 0.553101L15.145 1.064H15.7295L15.2578 1.3781L15.4372 1.8937L14.9604 1.57495L14.4887 1.889L14.6682 1.3781L14.1965 1.064H14.781L14.9604 0.553101ZM18.2878 0.553101L18.4672 1.064H19.0569L18.5801 1.3781L18.7646 1.8937L18.2878 1.57495L17.811 1.889L17.9956 1.3781L17.5188 1.064H18.1084L18.2878 0.553101ZM3.32738 1.84675L3.50681 2.35775H4.09639L3.61957 2.67175L3.79392 3.18275L3.33246 2.86865L2.8557 3.1827L3.02485 2.6718L2.56345 2.3577H3.14795L3.32738 1.84675ZM6.64964 1.84675L6.83422 2.35775H7.41866L6.94184 2.67175L7.12646 3.18275L6.64959 2.86865L6.17282 3.1827L6.35739 2.6718L5.88057 2.3577H6.47016L6.64964 1.84675ZM9.97705 1.84675L10.1564 2.35775H10.7461L10.2692 2.67175L10.4487 3.18275L9.977 2.86865L9.50023 3.1827L9.67966 2.67185L9.20798 2.35775H9.79248L9.97705 1.84675ZM13.2993 1.84675L13.4839 2.35775H14.0683L13.5915 2.67175L13.7761 3.18275L13.2993 2.86865L12.8276 3.1827L13.0071 2.6718L12.5302 2.3577H13.125L13.2993 1.84675ZM16.6267 1.84675L16.8061 2.35775H17.3957L16.9189 2.67175L17.0983 3.18275L16.6267 2.86865L16.1498 3.1827L16.3293 2.6718L15.8577 2.3577H16.4421L16.6267 1.84675ZM1.66111 3.13595L1.84568 3.65625H2.43018L1.95844 3.9703L2.13793 4.48125L1.66111 4.1625L1.18943 4.48125L1.36886 3.9656L0.89209 3.6516H1.48682L1.66111 3.13595ZM4.98851 3.13595L5.16794 3.65145H5.75753L5.28071 3.9655L5.46019 4.4765L4.98851 4.1577L4.51169 4.47645L4.69112 3.96085L4.21944 3.6468H4.80394L4.98851 3.13595ZM8.31078 3.13595L8.49535 3.65155H9.07471L8.60303 3.9656L8.7824 4.4766L8.30564 4.1578L7.83396 4.47655L8.01339 3.96095L7.53657 3.6469H8.12621L8.31078 3.13595ZM11.6382 3.13595L11.8176 3.65155H12.4072L11.9304 3.9656L12.1149 4.4766L11.6381 4.1578L11.1614 4.47655L11.3459 3.96095L10.8691 3.6469H11.4536L11.6382 3.13595ZM14.9604 3.13595L15.145 3.65155H15.7295L15.2578 3.96555L15.4372 4.47655L14.9604 4.15775L14.4887 4.4765L14.6682 3.9609L14.1965 3.64685H14.781L14.9604 3.13595ZM18.2878 3.13595L18.4672 3.65155H19.0569L18.5801 3.9656L18.7646 4.4766L18.2878 4.1578L17.811 4.47655L17.9956 3.96095L17.5188 3.6469H18.1084L18.2878 3.13595ZM3.32738 4.42965L3.50681 4.9406H4.09639L3.61957 5.2546L3.79906 5.77025L3.32738 5.4515L2.85056 5.76555L3.02999 5.25465L2.55831 4.9406H3.14286L3.32738 4.42965ZM6.64964 4.42965L6.83422 4.9406H7.41866L6.94184 5.2546L7.12646 5.77025L6.64959 5.4515L6.17282 5.76555L6.35739 5.25465L5.88057 4.9406H6.47016L6.64964 4.42965ZM9.97705 4.42965L10.1564 4.9406H10.7461L10.2692 5.2546L10.4487 5.77025L9.977 5.4515L9.50023 5.76555L9.67966 5.25465L9.20798 4.9406H9.79248L9.97705 4.42965ZM13.2993 4.42965L13.4839 4.9406H14.0683L13.5967 5.2546L13.7761 5.77025L13.2993 5.4515L12.8276 5.76555L13.0071 5.25465L12.5302 4.9406H13.125L13.2993 4.42965ZM16.6267 4.42965L16.8061 4.9406H17.3957L16.9189 5.2546L17.0983 5.77025L16.6267 5.4515L16.1498 5.76555L16.3293 5.25465L15.8577 4.9406H16.4421L16.6267 4.42965ZM1.66111 5.7234L1.84568 6.23435H2.43018L1.95844 6.54835L2.13793 7.064L1.66111 6.74525L1.18943 7.0593L1.36886 6.5484L0.89209 6.23435H1.48682L1.66111 5.7234ZM4.98851 5.7234L5.16794 6.23435H5.75753L5.28071 6.54835L5.46019 7.05935L4.98851 6.74525L4.51169 7.0593L4.69112 6.5484L4.21944 6.23435H4.80394L4.98851 5.7234ZM8.31078 5.7234L8.49535 6.23435H9.07471L8.60303 6.54835L8.7824 7.064L8.30564 6.74525L7.83396 7.0593L8.01339 6.5484L7.53657 6.23435H8.12621L8.31078 5.7234ZM11.6382 5.7234L11.8176 6.23435H12.4072L11.9304 6.54835L12.1149 7.064L11.6381 6.74525L11.1614 7.0593L11.3459 6.5484L10.8691 6.23435H11.4536L11.6382 5.7234ZM14.9604 5.7234L15.145 6.23435H15.7295L15.2578 6.54835L15.4372 7.064L14.9604 6.74525L14.4887 7.0593L14.6682 6.5484L14.1965 6.23435H14.781L14.9604 5.7234ZM18.2878 5.7234L18.4672 6.23435H19.0569L18.5801 6.54835L18.7646 7.064L18.2878 6.74525L17.811 7.0593L17.9956 6.5484L17.5188 6.23435H18.1084L18.2878 5.7234ZM3.32738 7.01715L3.50681 7.5281H4.09639L3.61957 7.8421L3.79906 8.3531L3.32738 8.03435L2.85056 8.3531L3.02999 7.83745L2.55831 7.5234H3.14286L3.32738 7.01715ZM6.64964 7.01715L6.83422 7.5281H7.41866L6.94184 7.8421L7.12646 8.3531L6.64959 8.03435L6.17282 8.3531L6.35739 7.83745L5.88057 7.5234H6.47016L6.64964 7.01715ZM9.97705 7.01715L10.1564 7.5281H10.7461L10.2692 7.8421L10.4487 8.3531L9.977 8.03435L9.50023 8.3531L9.67966 7.83745L9.20798 7.5234H9.79248L9.97705 7.01715ZM13.2993 7.01715L13.4839 7.5281H14.0683L13.5967 7.8421L13.7761 8.3531L13.2993 8.03435L12.8276 8.3531L13.0071 7.83745L12.5302 7.5234H13.125L13.2993 7.01715ZM16.6267 7.01715L16.8061 7.5281H17.3957L16.9189 7.8421L17.0983 8.3531L16.6267 8.03435L16.1498 8.3531L16.3293 7.83745L15.8577 7.5234H16.4421L16.6267 7.01715ZM1.66111 8.3062L1.84568 8.82185H2.43018L1.95844 9.13585L2.13793 9.64215L1.66111 9.3281L1.18943 9.6421L1.36886 9.1312L0.89209 8.81715H1.48682L1.66111 8.3062ZM4.98851 8.3062L5.16794 8.82185H5.75753L5.28071 9.13585L5.46533 9.64215L4.98846 9.3281L4.51169 9.6421L4.69626 9.1312L4.21944 8.81715H4.80394L4.98851 8.3062ZM8.31078 8.3062L8.49535 8.82185H9.07471L8.60303 9.13585L8.7824 9.64215L8.30564 9.3281L7.83396 9.6421L8.01339 9.1312L7.53657 8.81715H8.12621L8.31078 8.3062ZM11.6382 8.3062L11.8176 8.82185H12.4072L11.9304 9.13585L12.1149 9.64215L11.6381 9.3281L11.1614 9.6421L11.3459 9.1312L10.8691 8.81715H11.4536L11.6382 8.3062ZM14.9604 8.3062L15.145 8.82185H15.7295L15.2578 9.13585L15.4372 9.64215L14.9604 9.3281L14.4887 9.6421L14.6682 9.1312L14.1965 8.81715H14.781L14.9604 8.3062ZM18.2878 8.3062L18.4672 8.82185H19.0569L18.5801 9.13585L18.7646 9.64215L18.2878 9.3281L17.811 9.6421L17.9956 9.1312L17.5188 8.81715H18.1084L18.2878 8.3062ZM3.32738 9.59995L3.50681 10.1109H4.09639L3.61957 10.425L3.79906 10.9406L3.32738 10.6219L2.85056 10.9359L3.02999 10.425L2.55831 10.1109H3.14286L3.32738 9.59995ZM6.64964 9.59995L6.83422 10.1109H7.41866L6.94184 10.425L7.12646 10.9406L6.64959 10.6219L6.17282 10.9359L6.35739 10.425L5.88057 10.1109H6.47016L6.64964 9.59995ZM9.97705 9.59995L10.1564 10.1109H10.7461L10.2692 10.425L10.4487 10.9406L9.977 10.6219L9.50023 10.9359L9.67966 10.425L9.20798 10.1109H9.79248L9.97705 9.59995ZM13.2993 9.59995L13.4839 10.1109H14.0683L13.5967 10.425L13.7761 10.9406L13.2993 10.6219L12.8276 10.9359L13.0071 10.425L12.5302 10.1109H13.125L13.2993 9.59995ZM16.6267 9.59995L16.8061 10.1109H17.3957L16.9189 10.425L17.0983 10.9406L16.6267 10.6219L16.1498 10.9359L16.3293 10.425L15.8577 10.1109H16.4421L16.6267 9.59995ZM1.66111 10.8937L1.84568 11.4047H2.43018L1.95844 11.7187L2.13793 12.2297L1.66111 11.9156L1.18943 12.2296L1.36886 11.714L0.89209 11.4H1.48682L1.66111 10.8937ZM4.98851 10.8937L5.16794 11.4047H5.75753L5.28071 11.7187L5.46533 12.2297L4.98846 11.9156L4.51169 12.2296L4.69626 11.714L4.21944 11.4H4.80394L4.98851 10.8937ZM8.31078 10.8937L8.49535 11.4047H9.07471L8.61325 11.7187L8.79268 12.2297L8.31586 11.9156L7.84418 12.2296L8.02367 11.714L7.54685 11.4H8.13643L8.31078 10.8937ZM11.6382 10.8937L11.8176 11.4047H12.4072L11.9304 11.7187L12.1149 12.2297L11.6381 11.9156L11.1614 12.2296L11.3459 11.714L10.8691 11.4H11.4536L11.6382 10.8937ZM14.9604 10.8937L15.145 11.4047H15.7295L15.2578 11.7187L15.4372 12.2297L14.9604 11.9156L14.4887 12.2296L14.6682 11.714L14.1965 11.4H14.781L14.9604 10.8937ZM18.2878 10.8937L18.4672 11.4047H19.0569L18.5801 11.7187L18.7646 12.2297L18.2878 11.9156L17.811 12.2296L17.9956 11.714L17.5188 11.4H18.1084L18.2878 10.8937Z" fill="white"/>
</g>
<defs>
<clipPath id="clip0_119_3044">
<rect width="35" height="24" fill="white"/>
</clipPath>
</defs>
</svg>
