<svg width="15" height="7" viewBox="0 0 15 7" fill="none" xmlns="http://www.w3.org/2000/svg">
<path d="M7.49969 6.36298C7.27578 6.36339 7.05878 6.29034 6.88636 6.15651L1.13636 1.66804C0.940654 1.51567 0.81758 1.29671 0.794216 1.05934C0.770852 0.821966 0.849112 0.58562 1.01178 0.402296C1.17444 0.218972 1.40819 0.103687 1.6616 0.0818015C1.91501 0.059916 2.16732 0.133223 2.36303 0.285596L7.49969 4.30726L12.6364 0.429228C12.7344 0.35466 12.8472 0.298974 12.9683 0.265372C13.0893 0.23177 13.2163 0.220913 13.3419 0.233427C13.4674 0.24594 13.5891 0.281575 13.6999 0.338286C13.8108 0.394997 13.9085 0.471664 13.9876 0.563881C14.0754 0.656183 14.1418 0.764469 14.1829 0.881953C14.2239 0.999437 14.2385 1.12359 14.2259 1.24663C14.2133 1.36967 14.1738 1.48895 14.1097 1.59699C14.0456 1.70504 13.9583 1.79952 13.8534 1.87451L8.10344 6.21037C7.92607 6.32304 7.7135 6.37678 7.49969 6.36298Z" fill="white"/>
</svg>
